<?xml version="1.0" encoding="UTF-8"?>
<svg version="1.1" viewBox="0 0 1080 1080" width="1080" height="1080" xmlns="http://www.w3.org/2000/svg">
<path transform="translate(0)" d="m0 0h1080v1080h-1080z" fill="#FEFEFE"/>
<path transform="translate(531,238)" d="m0 0h5l9 6 25 14 19 11 17 10 15 9 11 6 14 8 24 14 21 12 24 14 23 13 11 7 11 6 24 14 9 5 16 9 9 6 1 1v30l-1 63-8 5-26 15-17 10-4 4 24 14 21 12 10 7 1 1v29l-1 63-3 3-11 6-21 12-13 8-11 6-15 9-28 16-17 10-21 12-22 13-17 10-64 37-13 8-11 6-15 9-4-1-11-6-28-16-41-24-25-14-24-14-14-8-24-14-14-8-24-14-28-16-13-8-11-6-19-11-7-4v-79l1-15 4-4 22-12 17-10 11-7 1-3-7-2-48-28-1-1v-79l1-15 14-9 28-16 11-7 11-6 14-8 13-8 11-6 14-8 19-11 16-10 11-6 14-8 24-14 26-15 41-24z" fill="#B2A0F2"/>
<path transform="translate(531,400)" d="m0 0h2v12l-1 20-1 59-8 5-13 8-11 6-8 5h-3v2l-12 6-4 3h-2l-2 4-15 9-38 22-17 10-6 4-8 2-6 2v2l-22 12-10 6-12 7h-2l2 5 20 11 48 28 28 16 24 14 26 15 20 12 11 6 22 13 4-1 13-7 13-8 11-6 22-13 14-8 24-14 15-9 5-1 11-6 4-1v-2l11-6 23-13 17-10 15-9 5-5 9-5 15-9 11-6 24-14 15-9h3v53l-1 39-13 8-11 6-19 11-10 6-55 32-7 4-3 4-11 6-14 8-22 13-24 14-14 8-38 22-13 8-11 6-15 9-4-1-11-6-28-16-41-24-25-14-24-14-14-8-24-14-14-8-24-14-28-16-13-8-11-6-19-11-7-4 2-77 1-17 7-5 11-6 19-11 17-10 5-5 23-13 15-9 21-12 15-9 7-2 28-16 16-10 12-6 26-16 11-6 8-5h3v-2l12-6 10-6z" fill="#9179EE"/>
<path transform="translate(815,403)" d="m0 0h2v54l-1 39-9 5-21 12-17 10-8 5-5 5-11 6-39 23-21 12-9 3-14 8-17 10-10 6-16 9-13 8-11 6-41 24-14 8-6 2 1-21 1-70 11-6 20-12 9-5 13-8 8-4 5-5 24-14 38-22 10-6 3-2 7-2 11-6 17-10 13-8 11-6 5-5 26-15 27-16 16-9z" fill="#9179EE"/>
<path transform="translate(530,240)" d="m0 0h3l-1 31-1 60-6 4-11 6-64 37-13 8-11 6-8 5-11 6-14 8-10 6-13 8-11 6-14 8-13 8-5 5-21 12-24 14-26 15-3 2h-3v-42l1-33 1-18 17-10 26-15 13-8 11-6 21-12 24-14 14-8 15-9 13-8 11-6 14-8 13-8 11-6 17-10 10-6h3v-2l11-6 8-5h3v-2l10-5z" fill="#9179EE"/>
<path transform="translate(814,564)" d="m0 0h3v53l-1 39-13 8-11 6-19 11-10 6-55 32-11 6-13 8-9 5-8 5h-3v2l-12 6-7 5-11 6-21 12-19 11-17 10-14 8-25 15-4-1 1-18 1-70 3-3 12-7 16-9 20-12h3v-2l11-6 9-5h2v-2l12-6 10-6 13-8 11-6 8-5h3v-2l11-6 23-13 17-10 15-9 5-5 9-5 15-9 11-6 24-14z" fill="#9179EE"/>
<path transform="translate(332,608)" d="m0 0 4 4 18 10 48 28 28 16 24 14 26 15 20 12 11 6 22 13 4-1 13-7 13-8 11-6 22-13 14-8 24-14 15-9h2l-1 3-11 6-14 8-10 6h-3v2l-18 10-4 1v2l-11 6-14 8-10 6-9 5-7 4h-2l-1 72-1 18 5-1 14-9 11-6 21-12 17-10 20-12 11-6 14-8 10-6 3-2h3v-2l11-6 14-8 8-5h2l-1 3-11 6-14 8-22 13-24 14-14 8-38 22-13 8-11 6-15 9-4-1-11-6-28-16-41-24-25-14-24-14-14-8-24-14-14-8-24-14-28-16-13-8-11-6-19-11-7-4v-2l10-4 10-6 19-11 14-8 17-10 12-7z" fill="#B2A0F2"/>
<path transform="translate(386,577)" d="m0 0h5l13 8 26 15 20 12 11 6 28 16 26 15 17 10 6-1 16-9 20-12 11-6 17-10 19-11 26-15 22-13 7-4h7l10 6 24 14 17 10v4l-10 6-11 6-26 15-10 6-13 8-11 6-14 8-24 14-14 8-34 20-31 18-4-1-25-14-10-6-52-30-24-14-28-16-60-35 1-4 10-6 19-11 13-8z" fill="#FEFEFE"/>
<path transform="translate(533,332)" d="m0 0 10 5 20 12 11 6 52 30 13 8 11 6 35 20 15 9 11 6 24 14-2 4-28 16-10 6-14 8-5-1-26-15-21-12-17-10-23-13-10-6-26-15-19-11-5 1-11 7-14 8-19 11-13 8-9 5-24 14-28 16-11 7-9 5h-6l-15-9-35-20-2-1 1-5 15-8 13-8 16-9 22-13 24-14 14-8 13-8 11-6 14-8 13-8 11-6 11-7 11-6 8-4z" fill="#FEFEFE"/>
<path transform="translate(531,398)" d="m0 0 5 1 24 14 22 13 11 6 24 14 16 9 13 8 11 6 21 12 5-1 15-9 12-6-1 3-21 12-5 3-7 2-11 6-10 6-48 28-8 5-3 4-10 5-15 9-17 10-5 1-11 6h-7l-13-8-11-6-25-14-11-7 2-4 3-4 9-5h3v-2l11-6 14-8 13-8 4-2 1-59 1-28 1-4-15 9-19 11-3-1 11-7 11-6z" fill="#B2A0F2"/>
<path transform="translate(530,493)" d="m0 0h6l13 8 28 16 15 9 4 2-1 4-10 6-19 11-28 16h-7l-13-8-11-6-25-14-11-7 2-4 24-14 21-12z" fill="#FEFEFE"/>
</svg>
